<svg class="services__img" id="Capa_1" data-name="Capa 1" xmlns="http://www.w3.org/2000/svg"
				  viewBox="0 0 100.19 75.13">
				  <defs>
					<style>
					  .cls-1 {
						fill: #1d1d1b;
					  }
					</style>
				  </defs>
				  <path class="cls-1"
					d="M449.48,251.31a29.51,29.51,0,0,0,3.31-4.21.83.83,0,0,1,.08-.12,29.75,29.75,0,0,0,4.52-17.65,1.7,1.7,0,0,0,0-.39,29.75,29.75,0,0,0-2.62-10.31,2.29,2.29,0,0,0-.1-.23,28,28,0,0,0-12.35-13l-.24-.12a26.23,26.23,0,0,0-9.77-2.75,1.7,1.7,0,0,0-.39,0,26.17,26.17,0,0,0-16.83,4.77l-.07,0a28,28,0,0,0-7.38,7.77h0a29.75,29.75,0,0,0-4.56,17.72,2.93,2.93,0,0,0,0,.41,29.91,29.91,0,0,0,2.61,10.28c0,.08.07.15.11.22a28,28,0,0,0,12.37,13l.21.11a26.1,26.1,0,0,0,9.82,2.75l.27,0h0q.84.06,1.68.06a26.26,26.26,0,0,0,15.18-4.84l.05,0A28,28,0,0,0,449.48,251.31Zm1.58-8.2-8-8.43L454,231.6A25.9,25.9,0,0,1,451.06,243.11Zm-.5-25-11,3.08,2.94-11.51a24.58,24.58,0,0,1,8,8.44Zm-20.82-12-2.94,11.52-8-8.45a23,23,0,0,1,11-3.07Zm-13.94,5.1,10.67,11.22a1.71,1.71,0,0,0,1.23.53,1.61,1.61,0,0,0,.44-.06,1.75,1.75,0,0,0,1.22-1.29l3.91-15.29a22.88,22.88,0,0,1,6.11,1.71l-3.89,15.3a1.83,1.83,0,0,0,1.22,2.23,1.48,1.48,0,0,0,.9,0l14.55-4.09a26.28,26.28,0,0,1,1.63,6.43L439.25,232A1.82,1.82,0,0,0,438,234.2a1.84,1.84,0,0,0,.45.82l10.65,11.2a24.37,24.37,0,0,1-4.48,4.7L434,239.73a1.68,1.68,0,0,0-2.45,0,1.91,1.91,0,0,0-.45.81l-3.89,15.29a23,23,0,0,1-6.12-1.7L425,238.82a1.83,1.83,0,0,0-1.22-2.23,1.72,1.72,0,0,0-.9,0l-14.57,4.11a26.28,26.28,0,0,1-1.63-6.43l14.57-4.11a1.84,1.84,0,0,0,1.23-2.23,2,2,0,0,0-.45-.81l-10.67-11.21a24.14,24.14,0,0,1,4.48-4.71ZM441.68,253A22.92,22.92,0,0,1,430.74,256l2.93-11.51ZM409.39,219l8,8.45-11,3.08A26,26,0,0,1,409.39,219Zm.49,25,11-3.09-2.94,11.52A24.51,24.51,0,0,1,409.88,244Zm20.34-6a7,7,0,1,0-6.62-7,7.12,7.12,0,0,0,1.93,4.92,6.46,6.46,0,0,0,4.69,2.05ZM428,228.71a3.05,3.05,0,0,1,4.48,0,3.45,3.45,0,0,1,0,4.71,3.08,3.08,0,0,1-4.48,0,3.46,3.46,0,0,1,0-4.71Zm67-7.14V208.93c0-6.81-5.27-12.33-11.75-12.34H445.52c-17.94-8.67-39.16-.41-47.41,18.44s-.38,41.15,17.55,49.82a34.33,34.33,0,0,0,14.93,3.43,34.72,34.72,0,0,0,6.81-.68h45.88c6.48,0,11.74-5.53,11.75-12.34V242.62a12.55,12.55,0,0,0-5.62-10.53A12.51,12.51,0,0,0,495,221.57ZM491.2,243v4.5h-5.61l5.08-7.54a9,9,0,0,1,.53,3ZM490.53,259l-5-7.93h5.72v4.5a9.15,9.15,0,0,1-.67,3.43Zm.67-49.75v4.5h-5.61l5.08-7.55a9.06,9.06,0,0,1,.53,3.05Zm-9.85,4.5H474.9l8.86-13.16a8.08,8.08,0,0,1,4.86,2.36Zm-17.24,33.68,8.41-13.21h7l-8.9,13.21Zm9-16.85-8.91-13.21h6.45l8.91,13.21Zm-2.46-16.84h-6.55l8.41-13.2h7ZM461,212.06a37.83,37.83,0,0,0-3.19-4.81l4.26-6.68h6.24Zm7.84,18.55h-2.95a40.08,40.08,0,0,0-.36-4.9Zm-3.07,3.64h2.54L465,239.47a39.85,39.85,0,0,0,.79-5.22Zm-5.59,17.21,8.65,12.84h-6.62l-5.71-7.83a37.64,37.64,0,0,0,3.68-5Zm4-.37h6.45l8.91,13.21h-6.45Zm10.69,0h6.42l7,11.06a8.12,8.12,0,0,1-4.58,2.11Zm6.45-3.63H474.9l8.86-13.16a8.08,8.08,0,0,1,4.86,2.36Zm-6.45-30.05h6.42l7,11.05a8.05,8.05,0,0,1-4.58,2.11Zm10.58,0h5.72v4.5a9.15,9.15,0,0,1-.67,3.43Zm-27.54-16.84-2.49,3.92a37.85,37.85,0,0,0-4.38-3.92Zm-50.55,54.48a35.17,35.17,0,0,1,0-48,31.2,31.2,0,0,1,45.64,0,35.19,35.19,0,0,1,0,48A31.2,31.2,0,0,1,407.39,255.05Zm46.66,4,3.84,5.27h-11a35.88,35.88,0,0,0,7.2-5.27Z"
					transform="translate(-394.84 -193.15)" />
				</svg>