<svg class="services__img" id="Capa_1" data-name="Capa 1" xmlns="http://www.w3.org/2000/svg"
				  viewBox="0 0 256 180">
				  <defs>
					<style>
					  .cls-1 {
						fill: #010101;
					  }
					</style>
				  </defs>
				  <path class="cls-1"
					d="M354.86,264.39a20,20,0,1,1,20-20A20,20,0,0,1,354.86,264.39Zm0-32a12,12,0,1,0,12,12A12,12,0,0,0,354.86,232.39Z"
					transform="translate(-298.86 -144.39)" />
				  <path class="cls-1"
					d="M498.86,264.39a20,20,0,1,1,20-20A20,20,0,0,1,498.86,264.39Zm0-32a12,12,0,1,0,12,12A12,12,0,0,0,498.86,232.39Z"
					transform="translate(-298.86 -144.39)" />
				  <path class="cls-1"
					d="M348.28,324.39H329.44a10.6,10.6,0,0,1-10.58-10.58V300.39a4,4,0,0,1,8,0v13.42a2.57,2.57,0,0,0,2.58,2.58h18.84a2.58,2.58,0,0,0,2.58-2.58v-5.42a4,4,0,0,1,8,0v5.42A10.6,10.6,0,0,1,348.28,324.39Z"
					transform="translate(-298.86 -144.39)" />
				  <path class="cls-1"
					d="M528.28,324.39H509.44a10.58,10.58,0,0,1-10.58-10.57v-5.43a4,4,0,0,1,8,0v5.43a2.58,2.58,0,0,0,2.58,2.57h18.84a2.58,2.58,0,0,0,2.58-2.57V300.39a4,4,0,0,1,8,0v13.43A10.58,10.58,0,0,1,528.28,324.39Z"
					transform="translate(-298.86 -144.39)" />
				  <path class="cls-1"
					d="M507.32,292.39H346.4a35.57,35.57,0,0,1-35.54-35.53,4.17,4.17,0,0,1,.06-.71l6.45-35.83a14.48,14.48,0,0,1,14.26-11.93H522.08a14.48,14.48,0,0,1,14.27,11.93l6.44,35.83a3.35,3.35,0,0,1,.07.71A35.57,35.57,0,0,1,507.32,292.39ZM318.86,257.2a27.57,27.57,0,0,0,27.54,27.19H507.32a27.56,27.56,0,0,0,27.53-27.19l-6.38-35.46a6.48,6.48,0,0,0-6.38-5.35H331.63a6.48,6.48,0,0,0-6.39,5.34Z"
					transform="translate(-298.86 -144.39)" />
				  <path class="cls-1"
					d="M514.86,196.39a4,4,0,0,1-3.63-2.32c-.29-.62-2.54-4.67-19.41-30.71a24,24,0,0,0-20.19-11H382.26A23.93,23.93,0,0,0,362,163.54l-19.74,31a4,4,0,1,1-6.75-4.3l19.73-31a31.91,31.91,0,0,1,27.05-14.85h89.38A31.92,31.92,0,0,1,498.53,159c18.5,28.54,19.6,30.92,20,31.7a4,4,0,0,1-3.63,5.68Z"
					transform="translate(-298.86 -144.39)" />
				  <path class="cls-1" d="M550.86,196.39h-20a4,4,0,0,1,0-8h20a4,4,0,0,1,0,8Z"
					transform="translate(-298.86 -144.39)" />
				  <path class="cls-1" d="M322.86,196.39h-20a4,4,0,0,1,0-8h20a4,4,0,0,1,0,8Z"
					transform="translate(-298.86 -144.39)" />
				  <path class="cls-1" d="M462.86,248.39h-72a4,4,0,0,1,0-8h72a4,4,0,0,1,0,8Z"
					transform="translate(-298.86 -144.39)" />
				  <path class="cls-1"
					d="M426.86,262.38a105.82,105.82,0,0,1-20.79-2.06,4,4,0,0,1,1.58-7.85,97.43,97.43,0,0,0,38.42,0,4,4,0,0,1,1.58,7.85A106.66,106.66,0,0,1,426.86,262.38Z"
					transform="translate(-298.86 -144.39)" />
				  <path class="cls-1" d="M446.86,172.39h-40a4,4,0,0,1,0-8h40a4,4,0,0,1,0,8Z"
					transform="translate(-298.86 -144.39)" />
				</svg>