<svg width="118" height="32" viewBox="0 0 118 32" fill="none" xmlns="http://www.w3.org/2000/svg">
<path fill-rule="evenodd" clip-rule="evenodd" d="M106.078 6.64727C112.663 6.64727 118 12.3233 118 19.3236C118 26.324 112.663 32 106.078 32C99.4932 32 94.1543 26.324 94.1543 19.3236C94.1543 12.3233 99.4932 6.64727 106.078 6.64727ZM47.6914 7.22424C49.2635 7.22424 50.2429 8.00726 51.345 9.55083L59.4836 23.4589H59.5476V7.22424H61.9737C63.2451 7.22424 64.2341 8.23299 64.2341 9.62763V31.424H62.3954C60.1929 31.424 59.1811 30.9322 57.822 29.0168L49.7589 15.2221H49.6949V31.424H47.2696C46.0666 31.424 45.0092 30.4864 45.0092 29.0215V9.62763C45.0105 9.31076 44.9528 8.99677 44.8396 8.70388C44.7264 8.41099 44.5599 8.14504 44.3497 7.92145C44.1395 7.69787 43.8898 7.5211 43.6151 7.40142C43.3405 7.28173 43.0463 7.2215 42.7497 7.22424H47.6914ZM87.8509 7.22424C89.2056 7.22424 90.1113 8.38566 90.1113 9.62763V12.0676H83.288V31.424H80.5436C79.2924 31.424 78.2832 30.4695 78.2832 29.0215V12.0676H73.722C72.4691 12.0676 71.5353 11.0935 71.466 9.78592L71.4616 9.62669C71.4616 8.33414 70.5234 7.22424 69.2161 7.22424H87.8509ZM4.98553 7.22424C6.28321 7.22424 7.17492 8.34351 7.24156 9.48995L7.24594 9.62669L7.26611 16.1363L7.26786 16.1372L15.5037 7.22424H21.7519L10.285 19.3227L21.751 31.424L17.9369 31.4221L17.6124 31.4146L17.2977 31.3959C16.1587 31.3022 15.16 30.921 13.7387 29.502L13.5423 29.3025L7.26699 22.5091L7.26523 22.5101V31.423H4.52082C3.28978 31.423 2.33669 30.4649 2.2648 29.177L2.26041 29.0206V9.62669C2.26041 8.45871 1.31171 7.31509 0.141166 7.22892L0 7.22424H4.98553ZM32.3709 12.8843C33.6089 12.8843 34.6313 13.8771 34.6313 15.2877V31.424H31.8869C30.6541 31.424 29.6265 30.3937 29.6265 29.0215V12.8843H32.3709ZM106.078 11.5075C102.017 11.5075 98.7251 15.0058 98.7251 19.3236C98.7251 23.6415 102.017 27.1408 106.078 27.1408C110.139 27.1408 113.432 23.6415 113.432 19.3236C113.432 15.0058 110.139 11.5075 106.078 11.5075ZM31.9211 0C33.4888 0 34.9505 0.563852 36.0719 2.32565C37.5449 4.63913 36.8005 7.06313 36.1096 8.0672C35.6686 8.69815 35.1084 9.22293 34.4651 9.60747C33.8219 9.992 33.1102 10.2277 32.3761 10.2992C30.9206 10.4388 29.6475 9.99385 28.9724 8.70973C28.2911 7.41156 28.427 5.73593 29.687 4.82271C30.605 4.15677 31.658 4.28415 32.3174 4.82552C32.9312 5.32943 33.032 5.9373 33.0285 6.29978L33.0224 6.43091L33.011 6.53019L32.9952 6.61636L33.0495 6.53394L33.1083 6.43466L33.1425 6.37096L33.2153 6.21736C33.5033 5.5558 33.5547 4.80454 33.3599 4.10525C33.0188 2.8127 31.4064 2.22637 30.2227 2.94664L30.1324 3.00565L29.9351 3.15457L29.3213 3.66691L29.0215 3.90856C28.4936 4.32068 27.8203 4.77214 26.9522 5.10558C25.4906 5.66755 24.1219 5.28354 23.2354 4.50239C22.9631 4.25421 22.7154 3.97675 22.4963 3.6744L22.3235 3.43088L22.171 3.20047L22.0421 2.99254L21.8965 2.74058L21.8018 2.56262L21.9483 2.764L22.0623 2.91105L22.292 3.1911L22.4814 3.4084L22.5866 3.52548C23.0934 4.07809 24.1157 4.57825 25.2161 4.48084C26.2218 4.39186 26.7944 4.08746 27.8623 2.80896L28.4051 2.13927L28.6462 1.85359C29.4353 0.941314 30.4963 0.00187326 31.9211 0Z" fill="#00708D"/>
</svg>
