<svg width="253" height="39" viewBox="0 0 253 39" fill="none" xmlns="http://www.w3.org/2000/svg">
<path fill-rule="evenodd" clip-rule="evenodd" d="M161.831 23.3994C161.831 14.4079 168.263 8.34131 176.881 8.34131C185.499 8.34131 191.951 14.4512 191.951 23.3128C191.951 32.1743 185.52 38.4575 176.838 38.4575C168.157 38.4575 161.831 32.3909 161.831 23.3994ZM186.241 23.3994C186.241 17.7011 182.357 13.6279 176.859 13.6279C171.362 13.6279 167.52 17.7228 167.52 23.3994C167.52 29.076 171.404 33.1709 176.859 33.1709C182.315 33.1709 186.241 29.076 186.241 23.3994ZM225.213 8.75311V38.046H219.992L205.791 17.2897V38.046H200.569V8.75311H205.833L219.992 29.4662V8.75311H225.213ZM252.638 8.75311H235.445L235.466 8.77473V38.0677H252.978V33.1494H240.921V25.7612H252.277V21.0163H240.921V13.6713H252.638V8.75311Z" fill="#59A2B5"/>
<path d="M134.709 8.08984C131.715 8.08984 128.787 8.99625 126.297 10.6944C123.807 12.3926 121.867 14.8063 120.721 17.6302C119.575 20.4542 119.275 23.5616 119.859 26.5595C120.444 29.5574 121.886 32.3112 124.003 34.4725C126.121 36.6339 128.818 38.1058 131.755 38.7021C134.692 39.2984 137.737 38.9924 140.503 37.8227C143.27 36.6529 145.635 34.6721 147.298 32.1306C148.962 29.5891 149.85 26.6011 149.85 23.5445C149.85 19.4456 148.255 15.5147 145.415 12.6164C142.576 9.71808 138.725 8.08984 134.709 8.08984V8.08984ZM134.709 33.0798C132.862 33.0798 131.056 32.5208 129.52 31.4732C127.984 30.4257 126.787 28.9368 126.08 27.1948C125.374 25.4529 125.189 23.5361 125.549 21.6868C125.909 19.8375 126.799 18.1389 128.105 16.8057C129.411 15.4724 131.075 14.5644 132.887 14.1966C134.699 13.8288 136.577 14.0175 138.283 14.7391C139.99 15.4606 141.448 16.6826 142.475 18.2503C143.501 19.818 144.049 21.6611 144.049 23.5466C144.049 26.075 143.065 28.4998 141.313 30.2876C139.562 32.0754 137.186 33.0798 134.709 33.0798Z" fill="#00708D"/>
<path d="M87.8994 8.79404H111.567C111.945 8.79087 112.32 8.86453 112.67 9.01072C113.019 9.15692 113.337 9.37273 113.605 9.64558C113.872 9.91842 114.083 10.2429 114.227 10.6C114.37 10.9571 114.442 11.3397 114.439 11.7255V14.7003H105.774V38.2972H102.289C101.908 38.3105 101.529 38.2438 101.175 38.1013C100.821 37.9588 100.5 37.7435 100.231 37.4688C99.9614 37.1941 99.7505 36.8658 99.6109 36.5044C99.4713 36.143 99.406 35.7561 99.419 35.3678V14.7003H93.6242C93.2418 14.707 92.8619 14.6342 92.5079 14.4865C92.1538 14.3388 91.8328 14.1192 91.5644 13.841C91.296 13.5628 91.0858 13.2318 90.9466 12.8681C90.8073 12.5045 90.742 12.1158 90.7544 11.7255C90.7595 11.341 90.6894 10.9592 90.5482 10.6026C90.407 10.246 90.1976 9.92175 89.9321 9.64878C89.6667 9.37582 89.3505 9.15963 89.0022 9.01287C88.6539 8.86611 88.2805 8.7917 87.9037 8.79404" fill="#00708D"/>
<path d="M54.2891 8.79188H60.5636C61.5108 8.81806 62.4355 9.09276 63.2486 9.58949C64.0616 10.0862 64.7357 10.7883 65.2058 11.628L75.5389 28.5776H75.6195V8.79188H78.6995C79.0792 8.78237 79.4568 8.85171 79.8094 8.99566C80.1621 9.13961 80.4824 9.3552 80.751 9.62933C81.0196 9.90345 81.2308 10.2304 81.3718 10.5904C81.5129 10.9503 81.5807 11.3358 81.5714 11.7233V38.295H79.2366C78.0947 38.4224 76.9409 38.2137 75.9114 37.6935C74.882 37.1733 74.0199 36.3633 73.4269 35.3592L63.1914 18.5439H63.1108V38.295H60.0372C59.6579 38.3042 59.2807 38.2347 58.9284 38.0908C58.5761 37.9468 58.2562 37.7313 57.9879 37.4575C57.7196 37.1836 57.5085 36.857 57.3675 36.4975C57.2265 36.1379 57.1584 35.7529 57.1674 35.3657V11.7233C57.1699 11.3378 57.0975 10.9557 56.9542 10.599C56.8109 10.2423 56.5996 9.91819 56.3326 9.64549C56.0656 9.37279 55.7483 9.1569 55.399 9.01037C55.0496 8.86384 54.6752 8.78957 54.2975 8.79188" fill="#00708D"/>
<path d="M37.6261 35.3724V15.6993H41.1115C41.4903 15.6919 41.8667 15.7627 42.2182 15.9073C42.5696 16.0519 42.8889 16.2673 43.1568 16.5408C43.4248 16.8143 43.6359 17.1402 43.7775 17.4989C43.9192 17.8576 43.9885 18.2419 43.9813 18.6286V38.3016H40.4938C40.1162 38.3045 39.7418 38.2307 39.3925 38.0845C39.0432 37.9383 38.7258 37.7226 38.4589 37.45C38.192 37.1774 37.981 36.8533 37.838 36.4966C37.695 36.1399 37.623 35.7577 37.6261 35.3724Z" fill="#00708D"/>
<path d="M41.0354 5.86699C40.5504 5.50647 39.9659 5.31223 39.3659 5.31223C38.7659 5.31223 38.1814 5.50647 37.6964 5.86699C36.9813 6.3895 36.4892 7.17152 36.3211 8.05263C36.1529 8.93374 36.3215 9.84713 36.7922 10.6054C37.2331 11.3397 37.8833 11.919 38.6557 12.2655C39.4281 12.6121 40.2858 12.7095 41.1139 12.5446C42.0474 12.457 42.9522 12.1693 43.7694 11.7004C44.5865 11.2315 45.2975 10.5918 45.8559 9.82324C46.5354 8.78595 46.894 7.56426 46.8853 6.31647C46.8766 5.06868 46.501 3.85232 45.8071 2.82501C45.2504 1.92237 44.4695 1.18629 43.5438 0.691567C42.618 0.196843 41.5805 -0.0388938 40.5366 0.00837725C39.5812 0.112074 38.6601 0.429747 37.8389 0.938726C37.0178 1.4477 36.3168 2.13546 35.7861 2.95286C34.1622 4.90283 33.4214 5.33615 32.0205 5.46831C31.415 5.52267 30.8052 5.44704 30.2301 5.24628C29.6551 5.04552 29.1275 4.7241 28.6815 4.30267C28.3226 3.93193 27.9879 3.53748 27.6797 3.12186C28.1581 4.00779 28.7755 4.80773 29.5073 5.48997C30.1615 6.02504 30.9422 6.37484 31.7709 6.50416C32.5996 6.63347 33.4471 6.53777 34.228 6.22665C35.7304 5.55928 37.1297 4.67249 38.382 3.59416C38.7275 3.38456 39.1137 3.25456 39.5136 3.21317C39.9134 3.17179 40.3173 3.22003 40.697 3.35457C41.0766 3.48912 41.4229 3.70672 41.7116 3.99211C42.0003 4.27749 42.2244 4.6238 42.3684 5.00682C42.522 5.51987 42.5601 6.06174 42.4796 6.5919C42.3991 7.12206 42.2021 7.62678 41.9035 8.06827C41.9821 7.66048 41.9421 7.23814 41.7887 6.85321C41.6352 6.46827 41.3748 6.13752 41.0396 5.90163" fill="#00708D"/>
<path d="M2.86983 11.7235V35.3658C2.86262 35.7525 2.93192 36.1367 3.07359 36.4955C3.21526 36.8542 3.42638 37.18 3.69432 37.4535C3.96226 37.727 4.28148 37.9425 4.63292 38.0871C4.98436 38.2317 5.36077 38.3025 5.73962 38.2951H9.22503V27.4294L17.1955 35.7103C17.895 36.5735 18.7831 37.2572 19.7884 37.7065C20.7937 38.1557 21.8882 38.3581 22.984 38.2972H27.6177L13.0564 23.5446L27.6177 8.79199H19.6876L9.22928 19.6577L9.20592 11.7235C9.20092 10.9476 8.89672 10.2049 8.35921 9.65625C7.8217 9.1076 7.09413 8.7971 6.33399 8.79199H0C0.753401 8.81795 1.46899 9.13521 2.00183 9.67949C2.53468 10.2238 2.84495 10.9544 2.86983 11.7235" fill="#00708D"/>
</svg>
