<svg width="325" height="40" viewBox="0 0 325 40" fill="none" xmlns="http://www.w3.org/2000/svg">
<path fill-rule="evenodd" clip-rule="evenodd" d="M144.089 33.9111C138.604 33.9111 134.14 29.5333 134.14 24.1555C134.14 18.7777 138.582 14.3999 144.089 14.3999C149.596 14.3999 154.037 18.7777 154.037 24.1555C154.037 29.5333 149.573 33.9111 144.089 33.9111ZM144.089 8.31104C135.182 8.31104 127.953 15.3999 127.953 24.1555C127.953 32.911 135.182 39.9999 144.089 39.9999C152.995 39.9999 160.224 32.911 160.224 24.1555C160.224 15.3999 153.018 8.31104 144.089 8.31104Z" fill="#00708D"/>
<path fill-rule="evenodd" clip-rule="evenodd" d="M58.3799 9.02246H65.0653C67.1955 9.02246 68.5099 10.0002 70.0056 11.9336L81.0422 29.3114H81.1328V9.02246H84.4188C86.1412 9.02246 87.4783 10.2891 87.4783 12.0224V39.2446H84.9854C82.0166 39.2446 80.6342 38.6225 78.7986 36.2447L67.8754 19.0002H67.7847V39.2446H64.476C62.8443 39.2446 61.4166 38.0669 61.4166 36.2447V12.0224C61.4166 10.378 60.1022 9.02246 58.3799 9.02246Z" fill="#00708D"/>
<path fill-rule="evenodd" clip-rule="evenodd" d="M94.209 9.02246H119.432C121.268 9.02246 122.492 10.4669 122.492 12.0224V15.0668H113.268V39.2446H109.551C107.852 39.2446 106.492 38.0447 106.492 36.2447V15.0668H100.328C98.5601 15.0668 97.2684 13.7557 97.2684 12.0224C97.2457 10.4224 95.9766 9.02246 94.2317 9.02246" fill="#00708D"/>
<path fill-rule="evenodd" clip-rule="evenodd" d="M40.6123 36.2444V16.0889H44.3289C46.0059 16.0889 47.3883 17.3333 47.3883 19.0888V39.2444H43.6717C41.9947 39.2444 40.6123 37.9556 40.6123 36.2444Z" fill="#00708D"/>
<path fill-rule="evenodd" clip-rule="evenodd" d="M44.2378 6.02214C43.3539 5.35547 41.9262 5.17769 40.6798 6.02214C38.9801 7.15547 38.7988 9.24448 39.7053 10.8667C40.6118 12.4667 42.3341 13.0222 44.3058 12.8444C46.5267 12.6444 48.317 11.4444 49.3594 10.0666C50.2886 8.82215 51.3084 5.77777 49.3141 2.91111C47.7958 0.711106 45.8241 0 43.6939 0C41.3597 0 39.7506 1.71108 38.6402 3.02219C36.9179 5.02219 36.1247 5.46657 34.629 5.59991C33.1333 5.71102 31.7509 5.08885 31.071 4.39996C30.3911 3.71107 30.0059 3.20001 30.0059 3.20001C30.0059 3.20001 30.8444 4.71104 31.9548 5.62215C33.1559 6.59993 35.0142 7.06666 36.9858 6.37777C39.3427 5.55554 40.6118 4.13327 41.405 3.68883C43.014 2.79994 45.1896 3.51111 45.6428 5.13333C46.1867 6.99999 45.1443 8.2666 45.1443 8.2666C45.1443 8.2666 45.5069 6.99991 44.2378 6.02214Z" fill="#00708D"/>
<path fill-rule="evenodd" clip-rule="evenodd" d="M3.55941 12.022V36.2443C3.55941 37.9554 4.89648 39.2443 6.61882 39.2443H10.3354V28.0888L18.8111 36.5554C21.3266 38.9554 22.8677 39.1999 24.9753 39.1999H29.9156L14.392 24.0664L29.9156 8.93311H21.4626L10.3128 20.1332V11.9998C10.2901 10.5109 9.06634 8.99984 7.2307 8.99984H0.5C2.17701 8.99984 3.55941 10.4887 3.55941 11.9998" fill="#00708D"/>
<path d="M182.863 39.4224C189.48 39.4224 193.832 36.0223 193.832 30.0445C193.832 24.6445 190.228 23.1335 185.401 21.378C181.73 20.0668 179.305 19.1335 179.305 16.7557C179.305 14.7113 181.163 13.4891 183.974 13.4891C186.308 13.4891 189.208 14.2891 191.248 15.4447L192.902 10.5113C190.818 9.3557 187.328 8.42236 183.996 8.42236C177.719 8.42236 173.368 11.7335 173.368 17.289C173.368 22.289 176.971 24.3334 181.889 26.1557C185.99 27.6445 187.894 28.3557 187.894 30.6891C187.894 33.0224 186.24 34.2891 183.18 34.2891C179.94 34.2891 176.563 32.8891 174.183 31.1113L172.665 36.4224C175.385 38.3113 179.101 39.4224 182.886 39.4224H182.863ZM209.015 39.0002V26.4224H222.93V39.0002H228.777V8.82235H222.93V21.4002H209.015V8.82235H203.168V39.0002H209.015ZM242.465 39.0002L245.502 30.5113H256.515L259.552 39.0002H265.739L254.295 8.82235H247.972L236.505 39.0002H242.442H242.465ZM254.861 25.9557H247.156L251.009 15.1113L254.861 25.9557ZM279.314 39.0002V27.2224H283.03L290.26 39.0002H297.149L288.673 26.2001C292.435 24.5779 294.429 21.3558 294.429 17.6669C294.429 12.6224 290.804 8.84459 284.186 8.84459H273.422V39.0224H279.268L279.314 39.0002ZM283.302 22.689H279.314V13.6002H283.348C286.112 13.6002 288.333 14.9113 288.333 18.0669C288.333 21.2446 286.022 22.689 283.302 22.689ZM323.754 39.0002V33.9557H310.837V26.3557H323.029V21.4668H310.837V13.9113H323.415V8.86683H304.99V39.0446H323.754V39.0002Z" fill="#59A2B5"/>
</svg>
